<?xml version="1.0" encoding="UTF-8"?>
<!DOCTYPE svg PUBLIC "-//W3C//DTD SVG 1.1//EN" "http://www.w3.org/Graphics/SVG/1.1/DTD/svg11.dtd">
<svg xmlns="http://www.w3.org/2000/svg" version="1.1" width="611px" height="1042px" style="shape-rendering:geometricPrecision; text-rendering:geometricPrecision; image-rendering:optimizeQuality; fill-rule:evenodd; clip-rule:evenodd" xmlns:xlink="http://www.w3.org/1999/xlink">
<g><path style="opacity:0.506" fill="#74c1e9" d="M 243.5,14.5 C 263.831,13.8334 284.331,13.5 305,13.5C 325.844,13.5003 346.344,14.167 366.5,15.5C 325.572,14.5061 284.572,14.1727 243.5,14.5 Z"/></g>
<g><path style="opacity:1" fill="#038fd7" d="M 243.5,14.5 C 284.572,14.1727 325.572,14.5061 366.5,15.5C 443.895,199.512 521.395,383.512 599,567.5C 599.972,570.294 599.139,572.294 596.5,573.5C 578.864,571.513 560.864,570.847 542.5,571.5C 528.167,571.5 513.833,571.5 499.5,571.5C 490.5,571.5 481.5,571.5 472.5,571.5C 464.833,571.5 457.167,571.5 449.5,571.5C 441.833,571.5 434.167,571.5 426.5,571.5C 424.167,571.5 421.833,571.5 419.5,571.5C 419.5,571.167 419.5,570.833 419.5,570.5C 411.739,546.975 403.406,523.641 394.5,500.5C 393.946,497.254 392.946,494.254 391.5,491.5C 352.67,490.501 313.67,490.168 274.5,490.5C 280.429,470.378 286.763,450.378 293.5,430.5C 296.769,419.027 300.436,407.694 304.5,396.5C 304.833,396.5 305.167,396.5 305.5,396.5C 322.833,396.5 340.167,396.5 357.5,396.5C 349.674,373.684 341.674,351.017 333.5,328.5C 330.142,317.736 326.475,307.07 322.5,296.5C 316.766,280.039 310.766,263.706 304.5,247.5C 303.893,247.624 303.56,247.957 303.5,248.5C 302.89,249.391 302.557,250.391 302.5,251.5C 283.837,304.489 265.17,357.489 246.5,410.5C 234.313,442.896 222.646,475.562 211.5,508.5C 203.918,527.909 196.918,547.575 190.5,567.5C 189.662,567.842 189.328,568.508 189.5,569.5C 149.736,570.161 110.069,570.828 70.5,571.5C 66.1667,571.5 61.8333,571.5 57.5,571.5C 44.8289,571.333 32.1623,571.5 19.5,572C 18.6198,573.356 18.2865,574.856 18.5,576.5C 15.7261,575.277 13.0594,573.777 10.5,572C 9.48288,570.951 9.31621,569.784 10,568.5C 87.592,383.659 165.425,198.992 243.5,14.5 Z"/></g>
<g><path style="opacity:1" fill="#116dbf" d="M 303.5,248.5 C 303.56,247.957 303.893,247.624 304.5,247.5C 310.766,263.706 316.766,280.039 322.5,296.5C 320.7,295.395 319.533,296.061 319,298.5C 314.862,309.247 310.529,319.914 306,330.5C 305.5,351.831 305.333,373.164 305.5,394.5C 305.5,395.167 305.5,395.833 305.5,396.5C 305.167,396.5 304.833,396.5 304.5,396.5C 304.832,346.997 304.499,297.664 303.5,248.5 Z"/></g>
<g><path style="opacity:1" fill="#043d86" d="M 302.5,251.5 C 303.498,278.662 303.831,305.995 303.5,333.5C 284.776,359.257 266.276,385.257 248,411.5C 246.893,412.712 246.393,412.379 246.5,410.5C 265.17,357.489 283.837,304.489 302.5,251.5 Z"/></g>
<g><path style="opacity:1" fill="#0e67b9" d="M 322.5,296.5 C 326.475,307.07 330.142,317.736 333.5,328.5C 323.633,350.239 314.3,372.239 305.5,394.5C 305.333,373.164 305.5,351.831 306,330.5C 310.529,319.914 314.862,309.247 319,298.5C 319.533,296.061 320.7,295.395 322.5,296.5 Z"/></g>
<g><path style="opacity:1" fill="#05438d" d="M 303.5,333.5 C 303.667,349.503 303.5,365.503 303,381.5C 272.667,424.5 242.333,467.5 212,510.5C 211.536,509.906 211.369,509.239 211.5,508.5C 222.646,475.562 234.313,442.896 246.5,410.5C 246.393,412.379 246.893,412.712 248,411.5C 266.276,385.257 284.776,359.257 303.5,333.5 Z"/></g>
<g><path style="opacity:1" fill="#0d60b1" d="M 333.5,328.5 C 341.674,351.017 349.674,373.684 357.5,396.5C 340.167,396.5 322.833,396.5 305.5,396.5C 305.5,395.833 305.5,395.167 305.5,394.5C 314.3,372.239 323.633,350.239 333.5,328.5 Z"/></g>
<g><path style="opacity:1" fill="#074893" d="M 303.5,248.5 C 304.499,297.664 304.832,346.997 304.5,396.5C 300.436,407.694 296.769,419.027 293.5,430.5C 259.952,475.905 227.119,521.905 195,568.5C 192.955,570.043 191.455,569.71 190.5,567.5C 196.918,547.575 203.918,527.909 211.5,508.5C 211.369,509.239 211.536,509.906 212,510.5C 242.333,467.5 272.667,424.5 303,381.5C 303.5,365.503 303.667,349.503 303.5,333.5C 303.831,305.995 303.498,278.662 302.5,251.5C 302.557,250.391 302.89,249.391 303.5,248.5 Z"/></g>
<g><path style="opacity:1" fill="#084d98" d="M 293.5,430.5 C 286.763,450.378 280.429,470.378 274.5,490.5C 275.919,491.451 277.585,491.784 279.5,491.5C 261.676,517.138 243.843,542.804 226,568.5C 224.052,569.109 222.218,569.776 220.5,570.5C 210.167,570.5 199.833,570.5 189.5,570.5C 189.5,570.167 189.5,569.833 189.5,569.5C 189.328,568.508 189.662,567.842 190.5,567.5C 191.455,569.71 192.955,570.043 195,568.5C 227.119,521.905 259.952,475.905 293.5,430.5 Z"/></g>
<g><path style="opacity:1" fill="#0953a0" d="M 279.5,491.5 C 287.5,491.5 295.5,491.5 303.5,491.5C 303.5,500.167 303.5,508.833 303.5,517.5C 290.943,534.256 278.61,551.256 266.5,568.5C 264.369,569.169 262.369,569.835 260.5,570.5C 247.167,570.5 233.833,570.5 220.5,570.5C 222.218,569.776 224.052,569.109 226,568.5C 243.843,542.804 261.676,517.138 279.5,491.5 Z"/></g>
<g><path style="opacity:1" fill="#1561ab" d="M 274.5,490.5 C 313.67,490.168 352.67,490.501 391.5,491.5C 387.167,491.5 382.833,491.5 378.5,491.5C 370.5,491.5 362.5,491.5 354.5,491.5C 338.167,491.5 321.833,491.5 305.5,491.5C 305.5,517.833 305.5,544.167 305.5,570.5C 311.167,570.5 316.833,570.5 322.5,570.5C 332.167,570.5 341.833,570.5 351.5,570.5C 359.167,570.5 366.833,570.5 374.5,570.5C 389.5,570.5 404.5,570.5 419.5,570.5C 419.5,570.833 419.5,571.167 419.5,571.5C 407.5,571.5 395.5,571.5 383.5,571.5C 373.833,571.5 364.167,571.5 354.5,571.5C 349.5,571.5 344.5,571.5 339.5,571.5C 333.167,571.5 326.833,571.5 320.5,571.5C 315.167,571.5 309.833,571.5 304.5,571.5C 281.167,571.5 257.833,571.5 234.5,571.5C 225.833,571.5 217.167,571.5 208.5,571.5C 202.167,571.5 195.833,571.5 189.5,571.5C 189.5,571.167 189.5,570.833 189.5,570.5C 199.833,570.5 210.167,570.5 220.5,570.5C 233.833,570.5 247.167,570.5 260.5,570.5C 274.833,570.5 289.167,570.5 303.5,570.5C 303.5,552.833 303.5,535.167 303.5,517.5C 303.5,508.833 303.5,500.167 303.5,491.5C 295.5,491.5 287.5,491.5 279.5,491.5C 277.585,491.784 275.919,491.451 274.5,490.5 Z"/></g>
<g><path style="opacity:1" fill="#0953a1" d="M 354.5,491.5 C 343.833,517.833 333.167,544.167 322.5,570.5C 316.833,570.5 311.167,570.5 305.5,570.5C 305.5,544.167 305.5,517.833 305.5,491.5C 321.833,491.5 338.167,491.5 354.5,491.5 Z"/></g>
<g><path style="opacity:1" fill="#084d99" d="M 354.5,491.5 C 362.5,491.5 370.5,491.5 378.5,491.5C 368.37,517.218 358.037,542.884 347.5,568.5C 348.949,569.172 350.282,569.839 351.5,570.5C 341.833,570.5 332.167,570.5 322.5,570.5C 333.167,544.167 343.833,517.833 354.5,491.5 Z"/></g>
<g><path style="opacity:1" fill="#074893" d="M 378.5,491.5 C 382.833,491.5 387.167,491.5 391.5,491.5C 392.946,494.254 393.946,497.254 394.5,500.5C 385.006,522.952 375.673,545.619 366.5,568.5C 369.306,569.168 371.972,569.834 374.5,570.5C 366.833,570.5 359.167,570.5 351.5,570.5C 350.282,569.839 348.949,569.172 347.5,568.5C 358.037,542.884 368.37,517.218 378.5,491.5 Z"/></g>
<g><path style="opacity:1" fill="#05428c" d="M 394.5,500.5 C 403.406,523.641 411.739,546.975 419.5,570.5C 404.5,570.5 389.5,570.5 374.5,570.5C 371.972,569.834 369.306,569.168 366.5,568.5C 375.673,545.619 385.006,522.952 394.5,500.5 Z"/></g>
<g><path style="opacity:1" fill="#0b5aa9" d="M 303.5,517.5 C 303.5,535.167 303.5,552.833 303.5,570.5C 289.167,570.5 274.833,570.5 260.5,570.5C 262.369,569.835 264.369,569.169 266.5,568.5C 278.61,551.256 290.943,534.256 303.5,517.5 Z"/></g>
<g><path style="opacity:1" fill="#187ec5" d="M 189.5,569.5 C 189.5,569.833 189.5,570.167 189.5,570.5C 189.5,570.833 189.5,571.167 189.5,571.5C 183.167,571.5 176.833,571.5 170.5,571.5C 159.167,571.5 147.833,571.5 136.5,571.5C 127.833,571.5 119.167,571.5 110.5,571.5C 103.167,571.5 95.8333,571.5 88.5,571.5C 82.5,571.5 76.5,571.5 70.5,571.5C 110.069,570.828 149.736,570.161 189.5,569.5 Z"/></g>
<g><path style="opacity:1" fill="#1d75c8" d="M 57.5,571.5 C 54.2255,579.051 51.2255,586.717 48.5,594.5C 47.609,593.89 46.609,593.557 45.5,593.5C 39.8222,590.664 34.4888,587.331 29.5,583.5C 29.0269,582.094 28.0269,581.427 26.5,581.5C 23.4887,580.331 20.822,578.664 18.5,576.5C 18.2865,574.856 18.6198,573.356 19.5,572C 32.1623,571.5 44.8289,571.333 57.5,571.5 Z"/></g>
<g><path style="opacity:1" fill="#156dbf" d="M 57.5,571.5 C 61.8333,571.5 66.1667,571.5 70.5,571.5C 76.5,571.5 82.5,571.5 88.5,571.5C 83.9263,584.484 78.9263,597.317 73.5,610C 74.3805,610.708 75.0472,611.542 75.5,612.5C 73.5659,611.89 71.8993,610.89 70.5,609.5C 70.0269,608.094 69.0269,607.427 67.5,607.5C 65.5659,606.89 63.8993,605.89 62.5,604.5C 62.0269,603.094 61.0269,602.427 59.5,602.5C 59.0269,601.094 58.0269,600.427 56.5,600.5C 54.5659,599.89 52.8993,598.89 51.5,597.5C 51.0269,596.094 50.0269,595.427 48.5,595.5C 48.5,595.167 48.5,594.833 48.5,594.5C 51.2255,586.717 54.2255,579.051 57.5,571.5 Z"/></g>
<g><path style="opacity:1" fill="#1367b8" d="M 88.5,571.5 C 95.8333,571.5 103.167,571.5 110.5,571.5C 104.16,588.177 97.8267,604.844 91.5,621.5C 90.8333,621.5 90.1667,621.5 89.5,621.5C 86.4887,620.331 83.822,618.664 81.5,616.5C 81.0269,615.094 80.0269,614.427 78.5,614.5C 76.9731,614.573 75.9731,613.906 75.5,612.5C 75.0472,611.542 74.3805,610.708 73.5,610C 78.9263,597.317 83.9263,584.484 88.5,571.5 Z"/></g>
<g><path style="opacity:1" fill="#1162b2" d="M 110.5,571.5 C 119.167,571.5 127.833,571.5 136.5,571.5C 128.848,592.627 120.514,613.46 111.5,634C 112.056,634.383 112.389,634.883 112.5,635.5C 112.167,635.5 111.833,635.5 111.5,635.5C 107.543,633.527 103.876,631.194 100.5,628.5C 100.027,627.094 99.0269,626.427 97.5,626.5C 95.5659,625.89 93.8993,624.89 92.5,623.5C 92.1667,622.833 91.8333,622.167 91.5,621.5C 97.8267,604.844 104.16,588.177 110.5,571.5 Z"/></g>
<g><path style="opacity:1" fill="#0e5baa" d="M 136.5,571.5 C 147.833,571.5 159.167,571.5 170.5,571.5C 159.44,598.348 148.773,625.348 138.5,652.5C 135.489,651.331 132.822,649.664 130.5,647.5C 130.027,646.094 129.027,645.427 127.5,645.5C 125.566,644.89 123.899,643.89 122.5,642.5C 122.027,641.094 121.027,640.427 119.5,640.5C 117.566,639.89 115.899,638.89 114.5,637.5C 114.167,636.5 113.5,635.833 112.5,635.5C 112.389,634.883 112.056,634.383 111.5,634C 120.514,613.46 128.848,592.627 136.5,571.5 Z"/></g>
<g><path style="opacity:1" fill="#0b53a1" d="M 170.5,571.5 C 176.833,571.5 183.167,571.5 189.5,571.5C 191.418,576.343 194.084,580.677 197.5,584.5C 197.733,586.062 198.4,587.395 199.5,588.5C 197.737,590.885 196.237,593.552 195,596.5C 185.509,620.3 176.009,644.133 166.5,668C 166.978,669.303 167.645,670.469 168.5,671.5C 166.566,670.89 164.899,669.89 163.5,668.5C 163.027,667.094 162.027,666.427 160.5,666.5C 158.566,665.89 156.899,664.89 155.5,663.5C 155.027,662.094 154.027,661.427 152.5,661.5C 152.027,660.094 151.027,659.427 149.5,659.5C 148.508,659.672 147.842,659.338 147.5,658.5C 147.027,657.094 146.027,656.427 144.5,656.5C 144.027,655.094 143.027,654.427 141.5,654.5C 141.027,653.094 140.027,652.427 138.5,652.5C 148.773,625.348 159.44,598.348 170.5,571.5 Z"/></g>
<g><path style="opacity:1" fill="#0e67b8" d="M 189.5,571.5 C 195.833,571.5 202.167,571.5 208.5,571.5C 240.531,605.363 272.031,639.697 303,674.5C 303.5,681.826 303.666,689.159 303.5,696.5C 268.692,658.948 233.859,621.282 199,583.5C 197.893,582.288 197.393,582.621 197.5,584.5C 194.084,580.677 191.418,576.343 189.5,571.5 Z"/></g>
<g><path style="opacity:1" fill="#0d61b2" d="M 208.5,571.5 C 217.167,571.5 225.833,571.5 234.5,571.5C 256.869,596.888 279.702,621.888 303,646.5C 303.174,641.316 303.674,636.316 304.5,631.5C 304.5,653.5 304.5,675.5 304.5,697.5C 303.833,697.5 303.5,697.167 303.5,696.5C 303.666,689.159 303.5,681.826 303,674.5C 272.031,639.697 240.531,605.363 208.5,571.5 Z"/></g>
<g><path style="opacity:1" fill="#0b5aa8" d="M 234.5,571.5 C 257.833,571.5 281.167,571.5 304.5,571.5C 304.5,591.5 304.5,611.5 304.5,631.5C 303.674,636.316 303.174,641.316 303,646.5C 279.702,621.888 256.869,596.888 234.5,571.5 Z"/></g>
<g><path style="opacity:1" fill="#074792" d="M 304.5,571.5 C 309.833,571.5 315.167,571.5 320.5,571.5C 328.7,611.951 337.033,652.284 345.5,692.5C 344.167,694.5 342.833,696.5 341.5,698.5C 337.651,705.544 333.318,712.211 328.5,718.5C 321.458,678.453 313.958,638.453 306,598.5C 305.168,650.668 305.335,702.668 306.5,754.5C 306.842,755.338 307.508,755.672 308.5,755.5C 308.027,756.906 307.027,757.573 305.5,757.5C 304.503,737.674 304.17,717.674 304.5,697.5C 304.5,675.5 304.5,653.5 304.5,631.5C 304.5,611.5 304.5,591.5 304.5,571.5 Z"/></g>
<g><path style="opacity:1" fill="#084d99" d="M 320.5,571.5 C 326.833,571.5 333.167,571.5 339.5,571.5C 345.541,604.442 352.207,637.109 359.5,669.5C 354.833,677.167 350.167,684.833 345.5,692.5C 337.033,652.284 328.7,611.951 320.5,571.5 Z"/></g>
<g><path style="opacity:1" fill="#09529f" d="M 339.5,571.5 C 344.5,571.5 349.5,571.5 354.5,571.5C 359.552,598.351 364.885,625.017 370.5,651.5C 368.5,654.833 366.5,658.167 364.5,661.5C 362.833,664.167 361.167,666.833 359.5,669.5C 352.207,637.109 345.541,604.442 339.5,571.5 Z"/></g>
<g><path style="opacity:1" fill="#0b58a7" d="M 354.5,571.5 C 364.167,571.5 373.833,571.5 383.5,571.5C 386.273,586.473 388.94,601.473 391.5,616.5C 386.528,625.15 381.528,633.816 376.5,642.5C 374.265,645.291 372.265,648.291 370.5,651.5C 364.885,625.017 359.552,598.351 354.5,571.5 Z"/></g>
<g><path style="opacity:1" fill="#0d61b1" d="M 383.5,571.5 C 395.5,571.5 407.5,571.5 419.5,571.5C 416.528,576.816 413.528,582.15 410.5,587.5C 404.743,595.92 399.41,604.586 394.5,613.5C 393.728,614.694 392.728,615.694 391.5,616.5C 388.94,601.473 386.273,586.473 383.5,571.5 Z"/></g>
<g><path style="opacity:1" fill="#0e53a0" d="M 419.5,571.5 C 421.833,571.5 424.167,571.5 426.5,571.5C 436.238,595.883 446.071,620.217 456,644.5C 458.095,649.347 459.595,654.347 460.5,659.5C 455.04,663.402 449.373,667.069 443.5,670.5C 433.306,642.455 422.306,614.788 410.5,587.5C 413.528,582.15 416.528,576.816 419.5,571.5 Z"/></g>
<g><path style="opacity:1" fill="#0f57a5" d="M 426.5,571.5 C 434.167,571.5 441.833,571.5 449.5,571.5C 460.061,596.62 470.061,621.953 479.5,647.5C 473.335,651.75 467.002,655.75 460.5,659.5C 459.595,654.347 458.095,649.347 456,644.5C 446.071,620.217 436.238,595.883 426.5,571.5 Z"/></g>
<g><path style="opacity:1" fill="#115dab" d="M 449.5,571.5 C 457.167,571.5 464.833,571.5 472.5,571.5C 481.624,592.542 489.958,613.876 497.5,635.5C 491.795,639.859 485.795,643.859 479.5,647.5C 470.061,621.953 460.061,596.62 449.5,571.5 Z"/></g>
<g><path style="opacity:1" fill="#1362b2" d="M 472.5,571.5 C 481.5,571.5 490.5,571.5 499.5,571.5C 506.121,588.406 512.455,605.406 518.5,622.5C 511.77,627.222 504.77,631.555 497.5,635.5C 489.958,613.876 481.624,592.542 472.5,571.5 Z"/></g>
<g><path style="opacity:1" fill="#1669bb" d="M 499.5,571.5 C 513.833,571.5 528.167,571.5 542.5,571.5C 546.448,581.063 550.115,590.729 553.5,600.5C 542.002,608.083 530.335,615.417 518.5,622.5C 512.455,605.406 506.121,588.406 499.5,571.5 Z"/></g>
<g><path style="opacity:1" fill="#2376c7" d="M 542.5,571.5 C 560.864,570.847 578.864,571.513 596.5,573.5C 581.998,582.25 567.665,591.25 553.5,600.5C 550.115,590.729 546.448,581.063 542.5,571.5 Z"/></g>
<g><path style="opacity:0.443" fill="#97bfe7" d="M 26.5,581.5 C 28.0269,581.427 29.0269,582.094 29.5,583.5C 27.9731,583.573 26.9731,582.906 26.5,581.5 Z"/></g>
<g><path style="opacity:1" fill="#0e4e9a" d="M 410.5,587.5 C 422.306,614.788 433.306,642.455 443.5,670.5C 436.668,675.084 429.668,679.417 422.5,683.5C 419.843,674.364 416.676,665.364 413,656.5C 407.296,641.86 401.129,627.527 394.5,613.5C 399.41,604.586 404.743,595.92 410.5,587.5 Z"/></g>
<g><path style="opacity:1" fill="#094d99" d="M 199.5,588.5 C 204.833,597.167 210.167,605.833 215.5,614.5C 214.25,614.577 213.417,615.244 213,616.5C 205.716,635.694 198.049,654.694 190,673.5C 188.648,676.72 187.814,680.053 187.5,683.5C 186.508,683.672 185.842,683.338 185.5,682.5C 185.027,681.094 184.027,680.427 182.5,680.5C 182.027,679.094 181.027,678.427 179.5,678.5C 178.508,678.672 177.842,678.338 177.5,677.5C 177.027,676.094 176.027,675.427 174.5,675.5C 174.027,674.094 173.027,673.427 171.5,673.5C 169.973,673.573 168.973,672.906 168.5,671.5C 167.645,670.469 166.978,669.303 166.5,668C 176.009,644.133 185.509,620.3 195,596.5C 196.237,593.552 197.737,590.885 199.5,588.5 Z"/></g>
<g><path style="opacity:0.486" fill="#8eb7e1" d="M 45.5,593.5 C 46.609,593.557 47.609,593.89 48.5,594.5C 48.5,594.833 48.5,595.167 48.5,595.5C 46.9731,595.573 45.9731,594.906 45.5,593.5 Z"/></g>
<g><path style="opacity:0.4" fill="#9cc0e5" d="M 48.5,595.5 C 50.0269,595.427 51.0269,596.094 51.5,597.5C 49.9731,597.573 48.9731,596.906 48.5,595.5 Z"/></g>
<g><path style="opacity:1" fill="#05418a" d="M 328.5,718.5 C 321.665,730.842 314.332,742.842 306.5,754.5C 305.335,702.668 305.168,650.668 306,598.5C 313.958,638.453 321.458,678.453 328.5,718.5 Z"/></g>
<g><path style="opacity:0.494" fill="#8eb6e0" d="M 56.5,600.5 C 58.0269,600.427 59.0269,601.094 59.5,602.5C 57.9731,602.573 56.9731,601.906 56.5,600.5 Z"/></g>
<g><path style="opacity:1" fill="#116cbf" d="M 303.5,696.5 C 303.5,697.167 303.833,697.5 304.5,697.5C 304.17,717.674 304.503,737.674 305.5,757.5C 303.49,758.349 301.823,757.682 300.5,755.5C 301.239,755.631 301.906,755.464 302.5,755C 285.304,726.994 267.97,699.161 250.5,671.5C 245.248,661.322 239.248,651.655 232.5,642.5C 227.347,632.862 221.68,623.528 215.5,614.5C 210.167,605.833 204.833,597.167 199.5,588.5C 198.4,587.395 197.733,586.062 197.5,584.5C 197.393,582.621 197.893,582.288 199,583.5C 233.859,621.282 268.692,658.948 303.5,696.5 Z"/></g>
<g><path style="opacity:0.4" fill="#9dc0e4" d="M 59.5,602.5 C 61.0269,602.427 62.0269,603.094 62.5,604.5C 60.9731,604.573 59.9731,603.906 59.5,602.5 Z"/></g>
<g><path style="opacity:0.451" fill="#92b7e0" d="M 67.5,607.5 C 69.0269,607.427 70.0269,608.094 70.5,609.5C 68.9731,609.573 67.9731,608.906 67.5,607.5 Z"/></g>
<g><path style="opacity:1" fill="#0d4993" d="M 394.5,613.5 C 401.129,627.527 407.296,641.86 413,656.5C 416.676,665.364 419.843,674.364 422.5,683.5C 414.844,688.997 406.844,693.997 398.5,698.5C 398.923,697.735 399.257,696.902 399.5,696C 392.777,678.554 385.777,661.22 378.5,644C 378.164,642.97 377.497,642.47 376.5,642.5C 381.528,633.816 386.528,625.15 391.5,616.5C 392.728,615.694 393.728,614.694 394.5,613.5 Z"/></g>
<g><path style="opacity:0.471" fill="#91b6de" d="M 78.5,614.5 C 80.0269,614.427 81.0269,615.094 81.5,616.5C 79.9731,616.573 78.9731,615.906 78.5,614.5 Z"/></g>
<g><path style="opacity:1" fill="#094893" d="M 215.5,614.5 C 221.68,623.528 227.347,632.862 232.5,642.5C 224.595,660.655 216.928,678.988 209.5,697.5C 208.508,697.672 207.842,697.338 207.5,696.5C 207.027,695.094 206.027,694.427 204.5,694.5C 201.489,693.331 198.822,691.664 196.5,689.5C 196.027,688.094 195.027,687.427 193.5,687.5C 193.027,686.094 192.027,685.427 190.5,685.5C 188.973,685.573 187.973,684.906 187.5,683.5C 187.814,680.053 188.648,676.72 190,673.5C 198.049,654.694 205.716,635.694 213,616.5C 213.417,615.244 214.25,614.577 215.5,614.5 Z"/></g>
<g><path style="opacity:0.478" fill="#92b6dc" d="M 89.5,621.5 C 90.1667,621.5 90.8333,621.5 91.5,621.5C 91.8333,622.167 92.1667,622.833 92.5,623.5C 90.9731,623.573 89.9731,622.906 89.5,621.5 Z"/></g>
<g><path style="opacity:0.537" fill="#87add7" d="M 97.5,626.5 C 99.0269,626.427 100.027,627.094 100.5,628.5C 98.9731,628.573 97.9731,627.906 97.5,626.5 Z"/></g>
<g><path style="opacity:0.471" fill="#94b5da" d="M 111.5,635.5 C 111.833,635.5 112.167,635.5 112.5,635.5C 113.5,635.833 114.167,636.5 114.5,637.5C 112.973,637.573 111.973,636.906 111.5,635.5 Z"/></g>
<g><path style="opacity:0.537" fill="#88abd4" d="M 119.5,640.5 C 121.027,640.427 122.027,641.094 122.5,642.5C 120.973,642.573 119.973,641.906 119.5,640.5 Z"/></g>
<g><path style="opacity:1" fill="#07428b" d="M 232.5,642.5 C 239.248,651.655 245.248,661.322 250.5,671.5C 243.995,684.041 238.328,697.208 233.5,711C 233.743,711.902 234.077,712.735 234.5,713.5C 231.489,712.331 228.822,710.664 226.5,708.5C 226.027,707.094 225.027,706.427 223.5,706.5C 223.027,705.094 222.027,704.427 220.5,704.5C 219.508,704.672 218.842,704.338 218.5,703.5C 218.027,702.094 217.027,701.427 215.5,701.5C 215.027,700.094 214.027,699.427 212.5,699.5C 212.027,698.094 211.027,697.427 209.5,697.5C 216.928,678.988 224.595,660.655 232.5,642.5 Z"/></g>
<g><path style="opacity:1" fill="#0b438d" d="M 376.5,642.5 C 377.497,642.47 378.164,642.97 378.5,644C 385.777,661.22 392.777,678.554 399.5,696C 399.257,696.902 398.923,697.735 398.5,698.5C 393.709,702.068 388.709,705.402 383.5,708.5C 377.962,692.437 371.629,676.77 364.5,661.5C 366.5,658.167 368.5,654.833 370.5,651.5C 372.265,648.291 374.265,645.291 376.5,642.5 Z"/></g>
<g><path style="opacity:0.592" fill="#7ea3cf" d="M 127.5,645.5 C 129.027,645.427 130.027,646.094 130.5,647.5C 128.973,647.573 127.973,646.906 127.5,645.5 Z"/></g>
<g><path style="opacity:0.557" fill="#81a3ce" d="M 138.5,652.5 C 140.027,652.427 141.027,653.094 141.5,654.5C 139.973,654.573 138.973,653.906 138.5,652.5 Z"/></g>
<g><path style="opacity:0.494" fill="#8cacd2" d="M 141.5,654.5 C 143.027,654.427 144.027,655.094 144.5,656.5C 142.973,656.573 141.973,655.906 141.5,654.5 Z"/></g>
<g><path style="opacity:0.384" fill="#9eb9d9" d="M 144.5,656.5 C 146.027,656.427 147.027,657.094 147.5,658.5C 145.973,658.573 144.973,657.906 144.5,656.5 Z"/></g>
<g><path style="opacity:0.565" fill="#7fa2cc" d="M 149.5,659.5 C 151.027,659.427 152.027,660.094 152.5,661.5C 150.973,661.573 149.973,660.906 149.5,659.5 Z"/></g>
<g><path style="opacity:0.443" fill="#93b0d4" d="M 152.5,661.5 C 154.027,661.427 155.027,662.094 155.5,663.5C 153.973,663.573 152.973,662.906 152.5,661.5 Z"/></g>
<g><path style="opacity:0.537" fill="#83a3cc" d="M 160.5,666.5 C 162.027,666.427 163.027,667.094 163.5,668.5C 161.973,668.573 160.973,667.906 160.5,666.5 Z"/></g>
<g><path style="opacity:1" fill="#0d3f86" d="M 364.5,661.5 C 371.629,676.77 377.962,692.437 383.5,708.5C 373.5,714.833 363.5,721.167 353.5,727.5C 351.109,720.497 348.609,713.497 346,706.5C 344.763,703.552 343.263,700.885 341.5,698.5C 342.833,696.5 344.167,694.5 345.5,692.5C 350.167,684.833 354.833,677.167 359.5,669.5C 361.167,666.833 362.833,664.167 364.5,661.5 Z"/></g>
<g><path style="opacity:0.522" fill="#86a3cb" d="M 171.5,673.5 C 173.027,673.427 174.027,674.094 174.5,675.5C 172.973,675.573 171.973,674.906 171.5,673.5 Z"/></g>
<g><path style="opacity:0.451" fill="#94afd1" d="M 174.5,675.5 C 176.027,675.427 177.027,676.094 177.5,677.5C 175.973,677.573 174.973,676.906 174.5,675.5 Z"/></g>
<g><path style="opacity:0.608" fill="#7798c4" d="M 179.5,678.5 C 181.027,678.427 182.027,679.094 182.5,680.5C 180.973,680.573 179.973,679.906 179.5,678.5 Z"/></g>
<g><path style="opacity:0.522" fill="#86a4cb" d="M 182.5,680.5 C 184.027,680.427 185.027,681.094 185.5,682.5C 183.973,682.573 182.973,681.906 182.5,680.5 Z"/></g>
<g><path style="opacity:1" fill="#063a81" d="M 250.5,671.5 C 267.97,699.161 285.304,726.994 302.5,755C 301.906,755.464 301.239,755.631 300.5,755.5C 300.027,754.094 299.027,753.427 297.5,753.5C 295.566,752.89 293.899,751.89 292.5,750.5C 292.027,749.094 291.027,748.427 289.5,748.5C 289.027,747.094 288.027,746.427 286.5,746.5C 286.027,745.094 285.027,744.427 283.5,744.5C 282.508,744.672 281.842,744.338 281.5,743.5C 281.027,742.094 280.027,741.427 278.5,741.5C 278.027,740.094 277.027,739.427 275.5,739.5C 274.508,739.672 273.842,739.338 273.5,738.5C 273.027,737.094 272.027,736.427 270.5,736.5C 270.027,735.094 269.027,734.427 267.5,734.5C 267.027,733.094 266.027,732.427 264.5,732.5C 261.489,731.331 258.822,729.664 256.5,727.5C 256.027,726.094 255.027,725.427 253.5,725.5C 251.566,724.89 249.899,723.89 248.5,722.5C 248.027,721.094 247.027,720.427 245.5,720.5C 245.027,719.094 244.027,718.427 242.5,718.5C 241.508,718.672 240.842,718.338 240.5,717.5C 240.027,716.094 239.027,715.427 237.5,715.5C 237.027,714.094 236.027,713.427 234.5,713.5C 234.077,712.735 233.743,711.902 233.5,711C 238.328,697.208 243.995,684.041 250.5,671.5 Z"/></g>
<g><path style="opacity:0.573" fill="#7b9ac4" d="M 190.5,685.5 C 192.027,685.427 193.027,686.094 193.5,687.5C 191.973,687.573 190.973,686.906 190.5,685.5 Z"/></g>
<g><path style="opacity:0.486" fill="#8aa4ca" d="M 193.5,687.5 C 195.027,687.427 196.027,688.094 196.5,689.5C 194.973,689.573 193.973,688.906 193.5,687.5 Z"/></g>
<g><path style="opacity:0.514" fill="#89a4c9" d="M 204.5,694.5 C 206.027,694.427 207.027,695.094 207.5,696.5C 205.973,696.573 204.973,695.906 204.5,694.5 Z"/></g>
<g><path style="opacity:0.643" fill="#6f8ebb" d="M 209.5,697.5 C 211.027,697.427 212.027,698.094 212.5,699.5C 210.973,699.573 209.973,698.906 209.5,697.5 Z"/></g>
<g><path style="opacity:0.6" fill="#7a97c1" d="M 212.5,699.5 C 214.027,699.427 215.027,700.094 215.5,701.5C 213.973,701.573 212.973,700.906 212.5,699.5 Z"/></g>
<g><path style="opacity:0.506" fill="#8ba5c9" d="M 215.5,701.5 C 217.027,701.427 218.027,702.094 218.5,703.5C 216.973,703.573 215.973,702.906 215.5,701.5 Z"/></g>
<g><path style="opacity:0.651" fill="#708dba" d="M 220.5,704.5 C 222.027,704.427 223.027,705.094 223.5,706.5C 221.973,706.573 220.973,705.906 220.5,704.5 Z"/></g>
<g><path style="opacity:0.584" fill="#7e98c0" d="M 223.5,706.5 C 225.027,706.427 226.027,707.094 226.5,708.5C 224.973,708.573 223.973,707.906 223.5,706.5 Z"/></g>
<g><path style="opacity:1" fill="#153a7f" d="M 341.5,698.5 C 343.263,700.885 344.763,703.552 346,706.5C 348.609,713.497 351.109,720.497 353.5,727.5C 338.64,737.095 323.64,746.428 308.5,755.5C 307.508,755.672 306.842,755.338 306.5,754.5C 314.332,742.842 321.665,730.842 328.5,718.5C 333.318,712.211 337.651,705.544 341.5,698.5 Z"/></g>
<g><path style="opacity:0.573" fill="#7e98bf" d="M 234.5,713.5 C 236.027,713.427 237.027,714.094 237.5,715.5C 235.973,715.573 234.973,714.906 234.5,713.5 Z"/></g>
<g><path style="opacity:0.486" fill="#8ea5c7" d="M 237.5,715.5 C 239.027,715.427 240.027,716.094 240.5,717.5C 238.973,717.573 237.973,716.906 237.5,715.5 Z"/></g>
<g><path style="opacity:0.671" fill="#708bb6" d="M 242.5,718.5 C 244.027,718.427 245.027,719.094 245.5,720.5C 243.973,720.573 242.973,719.906 242.5,718.5 Z"/></g>
<g><path style="opacity:0.549" fill="#8299bf" d="M 245.5,720.5 C 247.027,720.427 248.027,721.094 248.5,722.5C 246.973,722.573 245.973,721.906 245.5,720.5 Z"/></g>
<g><path style="opacity:0.608" fill="#768eb8" d="M 253.5,725.5 C 255.027,725.427 256.027,726.094 256.5,727.5C 254.973,727.573 253.973,726.906 253.5,725.5 Z"/></g>
<g><path style="opacity:0.592" fill="#778eb7" d="M 264.5,732.5 C 266.027,732.427 267.027,733.094 267.5,734.5C 265.973,734.573 264.973,733.906 264.5,732.5 Z"/></g>
<g><path style="opacity:0.506" fill="#869cbf" d="M 267.5,734.5 C 269.027,734.427 270.027,735.094 270.5,736.5C 268.973,736.573 267.973,735.906 267.5,734.5 Z"/></g>
<g><path style="opacity:0.4" fill="#99abc9" d="M 270.5,736.5 C 272.027,736.427 273.027,737.094 273.5,738.5C 271.973,738.573 270.973,737.906 270.5,736.5 Z"/></g>
<g><path style="opacity:0.592" fill="#788fb6" d="M 275.5,739.5 C 277.027,739.427 278.027,740.094 278.5,741.5C 276.973,741.573 275.973,740.906 275.5,739.5 Z"/></g>
<g><path style="opacity:0.471" fill="#8c9fc1" d="M 278.5,741.5 C 280.027,741.427 281.027,742.094 281.5,743.5C 279.973,743.573 278.973,742.906 278.5,741.5 Z"/></g>
<g><path style="opacity:0.663" fill="#6c83ae" d="M 283.5,744.5 C 285.027,744.427 286.027,745.094 286.5,746.5C 284.973,746.573 283.973,745.906 283.5,744.5 Z"/></g>
<g><path style="opacity:0.557" fill="#7d91b7" d="M 286.5,746.5 C 288.027,746.427 289.027,747.094 289.5,748.5C 287.973,748.573 286.973,747.906 286.5,746.5 Z"/></g>
<g><path style="opacity:0.471" fill="#8d9fc0" d="M 289.5,748.5 C 291.027,748.427 292.027,749.094 292.5,750.5C 290.973,750.573 289.973,749.906 289.5,748.5 Z"/></g>
<g><path style="opacity:0.557" fill="#7d91b6" d="M 297.5,753.5 C 299.027,753.427 300.027,754.094 300.5,755.5C 298.973,755.573 297.973,754.906 297.5,753.5 Z"/></g>
<g><path style="opacity:0.757" fill="#4ab17a" d="M 205.5,812.5 C 205.5,821.167 205.5,829.833 205.5,838.5C 139.5,838.5 73.5,838.5 7.5,838.5C 7.5,829.833 7.5,821.167 7.5,812.5C 73.5,812.5 139.5,812.5 205.5,812.5 Z"/></g>
<g><path style="opacity:1" fill="#009245" d="M 8.5,813.5 C 73.8333,813.5 139.167,813.5 204.5,813.5C 204.5,821.5 204.5,829.5 204.5,837.5C 139.167,837.5 73.8333,837.5 8.5,837.5C 8.5,829.5 8.5,821.5 8.5,813.5 Z"/></g>
<g><path style="opacity:0.96" fill="#e3e2e1" d="M 205.5,812.5 C 271.5,812.5 337.5,812.5 403.5,812.5C 403.5,820.833 403.5,829.167 403.5,837.5C 403.5,837.833 403.5,838.167 403.5,838.5C 337.5,837.167 271.5,837.167 205.5,838.5C 205.5,829.833 205.5,821.167 205.5,812.5 Z"/></g>
<g><path style="opacity:1" fill="#ce2d38" d="M 403.5,812.5 C 469.5,812.5 535.5,812.5 601.5,812.5C 601.5,820.833 601.5,829.167 601.5,837.5C 535.5,837.5 469.5,837.5 403.5,837.5C 403.5,829.167 403.5,820.833 403.5,812.5 Z"/></g>
<g><path style="opacity:0.451" fill="#e58b91" d="M 601.5,812.5 C 602.493,820.984 602.826,829.651 602.5,838.5C 536.167,838.5 469.833,838.5 403.5,838.5C 403.5,838.167 403.5,837.833 403.5,837.5C 469.5,837.5 535.5,837.5 601.5,837.5C 601.5,829.167 601.5,820.833 601.5,812.5 Z"/></g>
<g><path style="opacity:1" fill="#fcfdfd" d="M -0.5,1009.5 C -0.5,1008.5 -0.5,1007.5 -0.5,1006.5C 4.19253,1000.49 9.3592,994.82 15,989.5C 27.3128,1000.27 41.4795,1004.11 57.5,1001C 65.1918,997.405 67.6918,991.572 65,983.5C 63.8333,982.333 62.6667,981.167 61.5,980C 52.3538,977.263 43.0205,975.263 33.5,974C 10.7858,968.267 1.28581,953.767 5,930.5C 9.992,914.513 20.8253,905.347 37.5,903C 56.1456,900.37 72.979,904.537 88,915.5C 88.6667,916.5 88.6667,917.5 88,918.5C 84.3098,924.56 80.1431,930.227 75.5,935.5C 64.6826,927.842 52.6826,925.009 39.5,927C 32.4384,930.511 30.2717,936.011 33,943.5C 34.5429,945.378 36.3762,946.878 38.5,948C 48.1047,950.243 57.7714,952.243 67.5,954C 87.8737,960.898 96.3737,975.065 93,996.5C 88.0785,1012.57 77.2452,1022.07 60.5,1025C 37.7161,1028.72 17.3828,1023.55 -0.5,1009.5 Z"/></g>
<g><path style="opacity:1" fill="#fdfdfe" d="M 136.5,927.5 C 135.172,935.902 135.172,944.402 136.5,953C 151.163,953.5 165.83,953.667 180.5,953.5C 180.5,960.5 180.5,967.5 180.5,974.5C 165.5,974.5 150.5,974.5 135.5,974.5C 135.168,983.92 135.501,992.586 136.5,1000.5C 153.837,1000.33 171.17,1000.5 188.5,1001C 189.792,1004.57 190.458,1008.4 190.5,1012.5C 190.483,1016.42 190.15,1020.25 189.5,1024C 162.928,1024.83 136.428,1024.66 110,1023.5C 109.333,984.167 109.333,944.833 110,905.5C 136.428,904.339 162.928,904.172 189.5,905C 190.646,912.086 190.812,919.253 190,926.5C 172.243,927.492 154.41,927.826 136.5,927.5 Z"/></g>
<g><path style="opacity:1" fill="#fcfdfd" d="M 252.5,979.5 C 250.257,978.188 247.59,977.522 244.5,977.5C 241.833,977.667 239.167,977.833 236.5,978C 236,978.5 235.5,979 235,979.5C 234.5,994.163 234.333,1008.83 234.5,1023.5C 226.432,1024.83 218.265,1024.83 210,1023.5C 209.5,983.835 209.333,944.168 209.5,904.5C 230.545,904.058 251.545,904.558 272.5,906C 295.002,914.164 303.502,929.998 298,953.5C 294.966,963.865 288.466,971.032 278.5,975C 286.628,990.756 294.628,1006.59 302.5,1022.5C 301.975,1023.19 301.308,1023.69 300.5,1024C 291.5,1024.67 282.5,1024.67 273.5,1024C 266.12,1009.4 259.12,994.57 252.5,979.5 Z M 264.5,928.5 C 272.344,933.539 274.51,940.539 271,949.5C 268.886,952.121 266.386,954.121 263.5,955.5C 254.5,955.5 245.5,955.5 236.5,955.5C 236.5,946.167 236.5,936.833 236.5,927.5C 245.866,927.279 255.199,927.613 264.5,928.5 Z"/></g>
<g><path style="opacity:1" fill="#fefefe" d="M 319.5,904.5 C 328.167,904.5 336.833,904.5 345.5,904.5C 345.667,944.168 345.5,983.835 345,1023.5C 336.667,1024.83 328.333,1024.83 320,1023.5C 319.5,983.835 319.333,944.168 319.5,904.5 Z"/></g>
<g><path style="opacity:0.828" fill="#d8dfe9" d="M 448.5,905.5 C 422.167,905.5 395.833,905.5 369.5,905.5C 369.5,944.833 369.5,984.167 369.5,1023.5C 368.501,984.004 368.168,944.337 368.5,904.5C 395.339,904.169 422.005,904.502 448.5,905.5 Z"/></g>
<g><path style="opacity:1" fill="#fefefe" d="M 448.5,905.5 C 449.833,912.5 449.833,919.5 448.5,926.5C 430.5,926.5 412.5,926.5 394.5,926.5C 394.183,935.418 394.516,944.251 395.5,953C 410.163,953.5 424.83,953.667 439.5,953.5C 439.5,960.5 439.5,967.5 439.5,974.5C 424.5,974.5 409.5,974.5 394.5,974.5C 394.5,983.5 394.5,992.5 394.5,1001.5C 412.167,1001.5 429.833,1001.5 447.5,1001.5C 448.821,1004.6 449.488,1008.1 449.5,1012C 449.333,1015.5 449.167,1019 449,1022.5C 448.5,1023 448,1023.5 447.5,1024C 421.33,1024.83 395.33,1024.66 369.5,1023.5C 369.5,984.167 369.5,944.833 369.5,905.5C 395.833,905.5 422.167,905.5 448.5,905.5 Z"/></g>
<g><path style="opacity:0.999" fill="#fcfdfd" d="M 610.5,1021.5 C 610.5,1022.17 610.5,1022.83 610.5,1023.5C 601.912,1024.64 593.245,1024.8 584.5,1024C 580.552,1016.99 577.885,1009.49 576.5,1001.5C 562.829,1001.33 549.163,1001.5 535.5,1002C 533.112,1009.44 530.445,1016.77 527.5,1024C 519.167,1024.67 510.833,1024.67 502.5,1024C 501.941,1023.28 501.608,1022.44 501.5,1021.5C 515.157,982.848 528.824,944.181 542.5,905.5C 551.147,904.335 559.814,904.168 568.5,905C 582.617,943.855 596.617,982.688 610.5,1021.5 Z M 554.5,940.5 C 555.75,940.577 556.583,941.244 557,942.5C 560.537,954.277 564.37,965.943 568.5,977.5C 560.193,978.498 551.86,978.831 543.5,978.5C 547.166,965.838 550.832,953.172 554.5,940.5 Z"/></g>
<g><path style="opacity:0.051" fill="#dee3ec" d="M 264.5,928.5 C 255.199,927.613 245.866,927.279 236.5,927.5C 236.5,936.833 236.5,946.167 236.5,955.5C 245.5,955.5 254.5,955.5 263.5,955.5C 254.343,956.658 245.009,956.824 235.5,956C 234.349,946.578 234.182,937.078 235,927.5C 243.755,926.35 252.588,926.184 261.5,927C 262.737,927.232 263.737,927.732 264.5,928.5 Z"/></g>
<g><path style="opacity:0.038" fill="#e4e8ef" d="M 136.5,927.5 C 136.5,935.5 136.5,943.5 136.5,951.5C 151.215,951.183 165.882,951.517 180.5,952.5C 181.819,959.99 181.819,967.323 180.5,974.5C 180.5,967.5 180.5,960.5 180.5,953.5C 165.83,953.667 151.163,953.5 136.5,953C 135.172,944.402 135.172,935.902 136.5,927.5 Z"/></g>
<g><path style="opacity:0.016" fill="#e0e5ed" d="M 448.5,926.5 C 431.008,927.497 413.341,927.83 395.5,927.5C 395.5,935.5 395.5,943.5 395.5,951.5C 410.215,951.183 424.882,951.517 439.5,952.5C 440.819,959.99 440.819,967.323 439.5,974.5C 439.5,967.5 439.5,960.5 439.5,953.5C 424.83,953.667 410.163,953.5 395.5,953C 394.516,944.251 394.183,935.418 394.5,926.5C 412.5,926.5 430.5,926.5 448.5,926.5 Z"/></g>
<g><path style="opacity:0.42" fill="#dee4ed" d="M 180.5,974.5 C 166.01,975.496 151.343,975.829 136.5,975.5C 136.5,983.833 136.5,992.167 136.5,1000.5C 135.501,992.586 135.168,983.92 135.5,974.5C 150.5,974.5 165.5,974.5 180.5,974.5 Z"/></g>
<g><path style="opacity:0.389" fill="#e1e6ee" d="M 439.5,974.5 C 425.01,975.496 410.343,975.829 395.5,975.5C 395.5,983.833 395.5,992.167 395.5,1000.5C 413.008,1000.17 430.341,1000.5 447.5,1001.5C 429.833,1001.5 412.167,1001.5 394.5,1001.5C 394.5,992.5 394.5,983.5 394.5,974.5C 409.5,974.5 424.5,974.5 439.5,974.5 Z"/></g>
<g><path style="opacity:0.035" fill="#e5e9f0" d="M 252.5,979.5 C 247.167,979.5 241.833,979.5 236.5,979.5C 236.667,993.837 236.5,1008.17 236,1022.5C 235.617,1023.06 235.117,1023.39 234.5,1023.5C 234.333,1008.83 234.5,994.163 235,979.5C 235.5,979 236,978.5 236.5,978C 239.167,977.833 241.833,977.667 244.5,977.5C 247.59,977.522 250.257,978.188 252.5,979.5 Z"/></g>
</svg>
