<?xml version="1.0" encoding="UTF-8"?>
<!DOCTYPE svg PUBLIC "-//W3C//DTD SVG 1.1//EN" "http://www.w3.org/Graphics/SVG/1.1/DTD/svg11.dtd">
<svg xmlns="http://www.w3.org/2000/svg" version="1.1" width="263px" height="339px" style="shape-rendering:geometricPrecision; text-rendering:geometricPrecision; image-rendering:optimizeQuality; fill-rule:evenodd; clip-rule:evenodd" xmlns:xlink="http://www.w3.org/1999/xlink">
<g><path style="opacity:1" fill="#f8f9fa" d="M 247.5,23.5 C 250.438,25.934 253.271,28.6007 256,31.5C 257.83,34.8153 259.33,38.1486 260.5,41.5C 260.667,126.834 260.5,212.167 260,297.5C 259.009,299.447 258.675,301.447 259,303.5C 260.446,301.059 261.279,298.392 261.5,295.5C 261.833,295.5 262.167,295.5 262.5,295.5C 262.5,296.833 262.5,298.167 262.5,299.5C 260.499,307.848 255.499,313.515 247.5,316.5C 248.936,315.571 250.269,314.405 251.5,313C 224.616,325.139 196.283,332.473 166.5,335C 170.486,335.499 174.486,335.666 178.5,335.5C 171.371,336.815 164.037,337.482 156.5,337.5C 158.969,336.683 161.635,336.183 164.5,336C 162,335.833 159.5,335.667 157,335.5C 142.846,336.357 128.68,336.69 114.5,336.5C 101.314,335.016 87.9803,333.85 74.5,333C 76.3817,333.198 78.0484,333.698 79.5,334.5C 75.8776,334.678 72.5443,334.011 69.5,332.5C 70.8734,332.657 72.2068,332.49 73.5,332C 51.9002,328.133 31.2336,321.466 11.5,312C 7.10254,307.792 3.76921,302.958 1.5,297.5C 1.41016,271.888 1.41016,246.221 1.5,220.5C 1.5,161.833 1.5,103.167 1.5,44.5C 3.46304,33.0268 9.79637,24.8601 20.5,20C 76.4229,0.497173 133.756,-4.16949 192.5,6C 209.829,9.66827 226.829,14.3349 243.5,20C 245.093,20.9487 246.426,22.1154 247.5,23.5 Z M 144.5,30.5 C 145.978,30.238 147.311,30.5713 148.5,31.5C 146.032,34.4724 144.198,37.8057 143,41.5C 141.692,39.3586 140.192,37.3586 138.5,35.5C 140.162,33.3483 142.162,31.6817 144.5,30.5 Z"/></g>
<g><path style="opacity:1" fill="#fdfdfd" d="M 246.5,292.5 C 245.536,296.424 243.536,299.757 240.5,302.5C 192.351,320.488 142.685,326.321 91.5,320C 67.2106,317.125 43.8773,310.791 21.5,301C 20,299.5 18.5,298 17,296.5C 15.8384,254.249 15.3384,211.916 15.5,169.5C 15.6667,127.833 15.8333,86.1667 16,44.5C 19.2685,38.0993 24.4351,33.9327 31.5,32C 97.4821,10.0008 163.482,10.0008 229.5,32C 234.778,33.751 239.611,36.251 244,39.5C 244.667,40.8333 245.333,42.1667 246,43.5C 246.5,126.499 246.667,209.499 246.5,292.5 Z M 144.5,30.5 C 142.162,31.6817 140.162,33.3483 138.5,35.5C 140.192,37.3586 141.692,39.3586 143,41.5C 144.198,37.8057 146.032,34.4724 148.5,31.5C 147.311,30.5713 145.978,30.238 144.5,30.5 Z"/></g>
<g><path style="opacity:1" fill="#0463a7" d="M 254.5,287.5 C 255.382,293.518 254.049,298.852 250.5,303.5C 249.034,302.653 248.2,301.32 248,299.5C 247.606,301.955 246.44,303.955 244.5,305.5C 242.837,304.125 241.503,304.458 240.5,306.5C 239.708,305.3 239.708,303.967 240.5,302.5C 243.536,299.757 245.536,296.424 246.5,292.5C 248.23,293.976 249.563,293.642 250.5,291.5C 249.535,290.086 248.535,289.253 247.5,289C 248.496,207.195 248.829,125.362 248.5,43.5C 249.5,43.5 250.5,43.5 251.5,43.5C 251.457,39.1074 251.957,38.7741 253,42.5C 253.167,124.334 253.667,206.001 254.5,287.5 Z"/></g>
<g><path style="opacity:1" fill="#bcb4a7" d="M 260.5,41.5 C 261.499,125.998 261.833,210.665 261.5,295.5C 261.279,298.392 260.446,301.059 259,303.5C 258.675,301.447 259.009,299.447 260,297.5C 260.5,212.167 260.667,126.834 260.5,41.5 Z"/></g>
<g><path style="opacity:1" fill="#0766a6" d="M 254.5,287.5 C 253.667,206.001 253.167,124.334 253,42.5C 251.957,38.7741 251.457,39.1074 251.5,43.5C 250.5,43.5 249.5,43.5 248.5,43.5C 248.829,125.362 248.496,207.195 247.5,289C 248.535,289.253 249.535,290.086 250.5,291.5C 249.563,293.642 248.23,293.976 246.5,292.5C 246.667,209.499 246.5,126.499 246,43.5C 245.333,42.1667 244.667,40.8333 244,39.5C 239.611,36.251 234.778,33.751 229.5,32C 163.482,10.0008 97.4821,10.0008 31.5,32C 24.4351,33.9327 19.2685,38.0993 16,44.5C 15.8333,86.1667 15.6667,127.833 15.5,169.5C 15.3384,211.916 15.8384,254.249 17,296.5C 18.5,298 20,299.5 21.5,301C 43.8773,310.791 67.2106,317.125 91.5,320C 142.685,326.321 192.351,320.488 240.5,302.5C 239.708,303.967 239.708,305.3 240.5,306.5C 241.503,304.458 242.837,304.125 244.5,305.5C 246.44,303.955 247.606,301.955 248,299.5C 248.2,301.32 249.034,302.653 250.5,303.5C 247.625,307.281 243.958,310.114 239.5,312C 180.576,332.375 120.576,336.042 59.5,323C 44.4616,319.979 30.1283,314.979 16.5,308C 12.0721,304.908 9.23881,300.741 8,295.5C 7.33333,211.167 7.33333,126.833 8,42.5C 9.61663,38.1026 12.1166,34.2692 15.5,31C 31.9313,22.5541 49.2647,16.5541 67.5,13C 122.404,2.92974 176.404,6.26307 229.5,23C 237.832,25.2463 244.998,29.413 251,35.5C 252.439,37.2746 253.439,39.2746 254,41.5C 254.5,123.499 254.667,205.499 254.5,287.5 Z M 144.5,30.5 C 142.162,31.6817 140.162,33.3483 138.5,35.5C 140.192,37.3586 141.692,39.3586 143,41.5C 144.198,37.8057 146.032,34.4724 148.5,31.5C 147.311,30.5713 145.978,30.238 144.5,30.5 Z"/></g>
<g><path style="opacity:1" fill="#0066a4" d="M 249.5,47.5 C 250.833,87.1611 251.5,127.161 251.5,167.5C 251.167,207.5 250.833,247.5 250.5,287.5C 249.5,207.503 249.167,127.503 249.5,47.5 Z"/></g>
<g><path style="opacity:0.996" fill="#0866a6" d="M 141.5,26.5 C 153.249,26.6347 161.083,32.3014 165,43.5C 167.315,50.0209 166.981,56.3542 164,62.5C 157.716,68.6392 150.882,69.1392 143.5,64C 134.766,56.0157 131.599,46.1824 134,34.5C 136.028,31.3078 138.528,28.6411 141.5,26.5 Z M 144.5,30.5 C 142.162,31.6817 140.162,33.3483 138.5,35.5C 140.192,37.3586 141.692,39.3586 143,41.5C 144.198,37.8057 146.032,34.4724 148.5,31.5C 147.311,30.5713 145.978,30.238 144.5,30.5 Z"/></g>
<g><path style="opacity:0.639" fill="#dedacf" d="M 247.5,23.5 C 255.02,27.0152 260.02,32.6819 262.5,40.5C 262.5,125.5 262.5,210.5 262.5,295.5C 262.167,295.5 261.833,295.5 261.5,295.5C 261.833,210.665 261.499,125.998 260.5,41.5C 259.33,38.1486 257.83,34.8153 256,31.5C 253.271,28.6007 250.438,25.934 247.5,23.5 Z"/></g>
<g><path style="opacity:0.541" fill="#c5beb8" d="M 1.5,44.5 C 1.5,103.167 1.5,161.833 1.5,220.5C 0.833333,203.5 0.166667,186.5 -0.5,169.5C -0.5,140.5 -0.5,111.5 -0.5,82.5C 0.833333,79.5 0.833333,76.5 -0.5,73.5C -0.5,71.8333 -0.5,70.1667 -0.5,68.5C 0.833333,65.1667 0.833333,61.8333 -0.5,58.5C -0.5,55.8333 -0.5,53.1667 -0.5,50.5C 0.166667,48.5 0.833333,46.5 1.5,44.5 Z"/></g>
<g><path style="opacity:1" fill="#0b8f52" d="M 57.5,50.5 C 83.6005,51.6277 108.6,57.461 132.5,68C 137.666,70.7484 142.666,73.7484 147.5,77C 154.553,83.1375 156.386,90.6375 153,99.5C 150.588,103.916 147.422,107.749 143.5,111C 138.044,114.787 132.877,118.954 128,123.5C 127.429,127.615 129.263,130.115 133.5,131C 145.322,132.581 156.989,134.915 168.5,138C 183.391,143.965 186.557,153.799 178,167.5C 165.084,181.418 151.751,195.084 138,208.5C 133.525,215.885 133.358,223.385 137.5,231C 137.095,231.945 136.428,232.612 135.5,233C 126.483,230.651 120.65,224.817 118,215.5C 116.103,206.795 118.603,199.628 125.5,194C 135.625,186.21 145.458,178.044 155,169.5C 163.737,158.841 161.903,150.675 149.5,145C 136.882,143.004 124.216,141.337 111.5,140C 107.447,139.44 104.781,137.273 103.5,133.5C 105.235,130.257 107.568,127.423 110.5,125C 122.845,117.657 134.345,109.157 145,99.5C 149.178,92.7353 147.678,87.5686 140.5,84C 136.23,82.1819 131.897,80.5152 127.5,79C 113.213,76.0545 98.8799,73.3878 84.5,71C 74.7925,66.7801 65.9592,61.2801 58,54.5C 57.51,53.2068 57.3433,51.8734 57.5,50.5 Z"/></g>
<g><path style="opacity:1" fill="#f39909" d="M 100.5,145.5 C 108.131,147.076 114.297,151.076 119,157.5C 121.185,162.987 120.851,168.32 118,173.5C 114.833,178 111,181.833 106.5,185C 93.5061,191.828 80.8395,199.162 68.5,207C 61.8112,212.348 56.6446,218.848 53,226.5C 51.8668,228.211 50.3668,228.711 48.5,228C 41.874,209.907 46.874,195.907 63.5,186C 71.5306,182.317 79.5306,178.65 87.5,175C 100.122,168.589 104.455,158.756 100.5,145.5 Z"/></g>
<g><path style="opacity:1" fill="#ec970e" d="M 203.5,196.5 C 199.399,195.316 196.399,192.983 194.5,189.5C 193.329,185.508 192.495,181.508 192,177.5C 194.545,176.203 197.045,176.369 199.5,178C 204.979,181.793 208.312,186.96 209.5,193.5C 208.799,197.184 206.799,198.184 203.5,196.5 Z"/></g>
<g><path style="opacity:1" fill="#e00a1e" d="M 171.5,202.5 C 171.5,203.167 171.833,203.5 172.5,203.5C 171.656,205.759 169.989,206.759 167.5,206.5C 167.16,210.192 165.827,213.526 163.5,216.5C 160.752,218.467 158.419,220.8 156.5,223.5C 156.045,220.797 155.378,218.13 154.5,215.5C 157.221,210.603 160.555,206.103 164.5,202C 166.797,201.982 169.131,202.149 171.5,202.5 Z"/></g>
<g><path style="opacity:1" fill="#c4041a" d="M 172.5,203.5 C 176.236,204.305 179.736,205.638 183,207.5C 183.831,213.859 183.664,220.193 182.5,226.5C 178.854,229.235 175.021,231.568 171,233.5C 167.109,232.536 163.275,231.37 159.5,230C 158.361,228.22 157.361,226.386 156.5,224.5C 156.5,224.167 156.5,223.833 156.5,223.5C 158.419,220.8 160.752,218.467 163.5,216.5C 165.827,213.526 167.16,210.192 167.5,206.5C 169.989,206.759 171.656,205.759 172.5,203.5 Z"/></g>
<g><path style="opacity:1" fill="#ebeef5" d="M 194.5,189.5 C 196.399,192.983 199.399,195.316 203.5,196.5C 203.821,198.048 204.821,198.715 206.5,198.5C 202.216,205.615 197.216,212.282 191.5,218.5C 190.716,221.049 189.549,223.382 188,225.5C 187.506,227.134 187.34,228.801 187.5,230.5C 186.448,230.351 185.448,230.517 184.5,231C 182.532,235.3 179.532,238.633 175.5,241C 176.167,241.333 176.833,241.667 177.5,242C 174.334,242.322 171.667,243.489 169.5,245.5C 167.901,245.232 166.568,245.566 165.5,246.5C 160.061,244.836 154.894,241.836 150,237.5C 149.333,236.167 149.333,234.833 150,233.5C 152.188,230.433 154.355,227.433 156.5,224.5C 157.361,226.386 158.361,228.22 159.5,230C 163.275,231.37 167.109,232.536 171,233.5C 175.021,231.568 178.854,229.235 182.5,226.5C 183.664,220.193 183.831,213.859 183,207.5C 179.736,205.638 176.236,204.305 172.5,203.5C 171.833,203.5 171.5,203.167 171.5,202.5C 172.552,202.649 173.552,202.483 174.5,202C 179.751,195.543 186.417,191.376 194.5,189.5 Z"/></g>
<g><path style="opacity:1" fill="#e5eff6" d="M 167.5,247.5 C 171.989,248.571 176.322,248.571 180.5,247.5C 181.15,247.804 181.817,248.137 182.5,248.5C 189.738,245.714 197.071,243.214 204.5,241C 202.193,239.172 202.526,237.506 205.5,236C 204.906,235.536 204.239,235.369 203.5,235.5C 204.793,233.704 206.293,232.037 208,230.5C 209.128,228.655 209.628,226.655 209.5,224.5C 210.158,225.398 210.824,226.398 211.5,227.5C 215.302,219.862 216.469,211.862 215,203.5C 221.423,215.833 220.756,227.833 213,239.5C 201.87,252.068 188.036,256.234 171.5,252C 169.808,250.693 168.475,249.193 167.5,247.5 Z"/></g>
<g><path style="opacity:1" fill="#1b6ba7" d="M 209.5,224.5 C 209.628,226.655 209.128,228.655 208,230.5C 206.293,232.037 204.793,233.704 203.5,235.5C 199.856,238.326 195.856,240.66 191.5,242.5C 191.167,242.167 190.833,241.833 190.5,241.5C 194.151,233.35 199.984,227.35 208,223.5C 208.765,223.57 209.265,223.903 209.5,224.5 Z"/></g>
<g><path style="opacity:1" fill="#46a277" d="M 165.5,246.5 C 166.568,245.566 167.901,245.232 169.5,245.5C 173.193,246.06 176.86,246.727 180.5,247.5C 176.322,248.571 171.989,248.571 167.5,247.5C 167.158,246.662 166.492,246.328 165.5,246.5 Z"/></g>
<g><path style="opacity:1" fill="#2b74ac" d="M 131.5,256.5 C 136.56,255.668 139.227,257.668 139.5,262.5C 136.833,262.5 134.167,262.5 131.5,262.5C 131.5,260.5 131.5,258.5 131.5,256.5 Z"/></g>
<g><path style="opacity:1" fill="#1669a8" d="M 191.5,256.5 C 198.175,256.334 204.842,256.5 211.5,257C 220.603,258.354 223.769,263.521 221,272.5C 219.5,274 218,275.5 216.5,277C 221.55,278.434 223.883,281.767 223.5,287C 223.569,292.872 220.902,296.872 215.5,299C 206.568,300.381 197.568,300.881 188.5,300.5C 188.333,286.496 188.5,272.496 189,258.5C 189.995,257.934 190.828,257.267 191.5,256.5 Z"/></g>
<g><path style="opacity:1" fill="#f3f8fa" d="M 196.5,263.5 C 201.511,263.334 206.511,263.501 211.5,264C 215.729,267.843 215.395,271.177 210.5,274C 205.845,274.499 201.179,274.666 196.5,274.5C 196.5,270.833 196.5,267.167 196.5,263.5 Z"/></g>
<g><path style="opacity:1" fill="#0264a7" d="M 136.5,267.5 C 137.492,267.328 138.158,267.662 138.5,268.5C 138.5,278.833 138.5,289.167 138.5,299.5C 136.5,299.5 134.5,299.5 132.5,299.5C 132.5,288.833 132.5,278.167 132.5,267.5C 133.833,267.5 135.167,267.5 136.5,267.5 Z"/></g>
<g><path style="opacity:1" fill="#4890bc" d="M 136.5,267.5 C 135.167,267.5 133.833,267.5 132.5,267.5C 132.5,278.167 132.5,288.833 132.5,299.5C 134.5,299.5 136.5,299.5 138.5,299.5C 138.5,289.167 138.5,278.833 138.5,268.5C 139.494,278.987 139.828,289.654 139.5,300.5C 136.833,300.5 134.167,300.5 131.5,300.5C 131.5,289.167 131.5,277.833 131.5,266.5C 133.415,266.216 135.081,266.549 136.5,267.5 Z"/></g>
<g><path style="opacity:1" fill="#f8fafb" d="M 196.5,280.5 C 201.844,280.334 207.177,280.501 212.5,281C 216.761,285.483 216.428,289.483 211.5,293C 206.511,293.499 201.511,293.666 196.5,293.5C 196.5,289.167 196.5,284.833 196.5,280.5 Z"/></g>
<g><path style="opacity:1" fill="#488ebb" d="M 105.5,279.5 C 106.461,281.265 106.795,283.265 106.5,285.5C 99.1667,285.5 91.8333,285.5 84.5,285.5C 84.5,286.5 84.5,287.5 84.5,288.5C 83.5655,287.432 83.2322,286.099 83.5,284.5C 90.8333,284.5 98.1667,284.5 105.5,284.5C 105.5,282.833 105.5,281.167 105.5,279.5 Z"/></g>
<g><path style="opacity:1" fill="#0a66a6" d="M 118.5,267.5 C 121.5,267.5 124.5,267.5 127.5,267.5C 127.5,269.833 127.5,272.167 127.5,274.5C 123.808,273.971 120.642,274.971 118,277.5C 117.5,285.159 117.334,292.826 117.5,300.5C 114.833,300.5 112.167,300.5 109.5,300.5C 109.334,292.826 109.5,285.159 110,277.5C 111,275.5 112,273.5 113,271.5C 115.015,270.303 116.849,268.97 118.5,267.5 Z"/></g>
<g><path style="opacity:1" fill="#0f67a6" d="M 105.5,279.5 C 105.5,281.167 105.5,282.833 105.5,284.5C 98.1667,284.5 90.8333,284.5 83.5,284.5C 83.2322,286.099 83.5655,287.432 84.5,288.5C 86.0017,294.192 89.6684,296.025 95.5,294C 98.1343,290.549 101.468,289.715 105.5,291.5C 101.174,299.435 94.5068,302.268 85.5,300C 80.9014,298.402 78.0681,295.235 77,290.5C 73.5907,270.566 81.424,263.399 100.5,269C 104.192,271.55 105.858,275.05 105.5,279.5 Z"/></g>
<g><path style="opacity:1" fill="#83b3d5" d="M 84.5,277.5 C 86.223,278.8 88.3897,279.467 91,279.5C 93.6103,279.467 95.777,278.8 97.5,277.5C 98.404,278.209 98.7373,279.209 98.5,280.5C 93.5,280.5 88.5,280.5 83.5,280.5C 83.2627,279.209 83.596,278.209 84.5,277.5 Z"/></g>
<g><path style="opacity:1" fill="#f7fbfb" d="M 97.5,277.5 C 95.777,278.8 93.6103,279.467 91,279.5C 88.3897,279.467 86.223,278.8 84.5,277.5C 86.6973,272.338 90.364,271.171 95.5,274C 96.8228,274.816 97.4894,275.983 97.5,277.5 Z"/></g>
<g><path style="opacity:1" fill="#1468a7" d="M 153.5,266.5 C 168.261,264.368 175.261,270.701 174.5,285.5C 167.167,285.5 159.833,285.5 152.5,285.5C 154.048,295.151 158.715,296.984 166.5,291C 168.81,290.503 171.143,290.337 173.5,290.5C 172.844,295.287 170.178,298.454 165.5,300C 148.587,301.405 141.754,293.571 145,276.5C 146.687,272.084 149.52,268.751 153.5,266.5 Z"/></g>
<g><path style="opacity:1" fill="#f2f7f7" d="M 155.5,272.5 C 158.649,272.211 161.649,272.711 164.5,274C 166.155,275.444 166.822,277.278 166.5,279.5C 161.833,279.5 157.167,279.5 152.5,279.5C 152.688,276.794 153.688,274.461 155.5,272.5 Z"/></g>
<g><path style="opacity:1" fill="#1469a7" d="M 49.5,255.5 C 55.9287,254.698 61.9287,255.864 67.5,259C 70.076,261.651 71.4093,264.818 71.5,268.5C 66.6434,269.162 62.9768,267.329 60.5,263C 54.2332,259.997 49.5665,261.497 46.5,267.5C 46.8757,269.383 47.8757,270.883 49.5,272C 55.8111,274.127 62.1444,276.127 68.5,278C 75.0021,284.56 75.0021,291.226 68.5,298C 58.6912,303.335 49.5245,302.502 41,295.5C 39.6591,292.978 38.8257,290.311 38.5,287.5C 41.2469,287.187 43.9135,287.52 46.5,288.5C 47.3006,291.133 48.9673,292.967 51.5,294C 54.8333,294.667 58.1667,294.667 61.5,294C 65.8721,291.805 66.5388,288.805 63.5,285C 56.6852,282.728 50.0185,280.061 43.5,277C 36.5827,267.246 38.5827,260.079 49.5,255.5 Z"/></g>
<g><path style="opacity:0.933" fill="#d2ccc7" d="M 1.5,297.5 C 3.76921,302.958 7.10254,307.792 11.5,312C 31.2336,321.466 51.9002,328.133 73.5,332C 72.2068,332.49 70.8734,332.657 69.5,332.5C 50.3346,329.627 32.0013,324.127 14.5,316C 7.1765,311.857 2.84316,305.69 1.5,297.5 Z"/></g>
<g><path style="opacity:0.91" fill="#d8d2cd" d="M 247.5,316.5 C 225.926,327.461 202.926,333.795 178.5,335.5C 174.486,335.666 170.486,335.499 166.5,335C 196.283,332.473 224.616,325.139 251.5,313C 250.269,314.405 248.936,315.571 247.5,316.5 Z"/></g>
<g><path style="opacity:0.786" fill="#e0dcd8" d="M 114.5,336.5 C 126.461,337.506 140.461,337.839 156.5,337.5C 156.5,337.833 156.5,338.167 156.5,338.5C 140.833,338.5 125.167,338.5 109.5,338.5C 99.5801,337.423 89.5801,336.09 79.5,334.5C 78.0484,333.698 76.3817,333.198 74.5,333C 87.9803,333.85 101.314,335.016 114.5,336.5 Z"/></g>
<g><path style="opacity:0.983" fill="#c1b5aa" d="M 156.5,337.5 C 140.461,337.839 126.461,337.506 114.5,336.5C 128.68,336.69 142.846,336.357 157,335.5C 159.5,335.667 162,335.833 164.5,336C 161.635,336.183 158.969,336.683 156.5,337.5 Z"/></g>
</svg>
